/* XPM */
static char *_de7082b47674d1dc8380dbb245ba04aZSxUVJsKFW6HEe9M[] = {
/* columns rows colors chars-per-pixel */
"64 64 190 2 ",
"   c None",
".  c #040302",
"X  c #0B0704",
"o  c #0E0806",
"O  c #0D0908",
"+  c #110A06",
"@  c #150D09",
"#  c #190E0A",
"$  c #1C110C",
"%  c #1C1412",
"&  c #23140E",
"*  c #2B170F",
"=  c #231511",
"-  c #291612",
";  c #221A16",
":  c #2C1A13",
">  c #251C1A",
",  c #2B1C19",
"<  c #341C14",
"1  c #3A1F15",
"2  c #331E1A",
"3  c #381F18",
"4  c #2A2119",
"5  c #342217",
"6  c #3E2116",
"7  c #35211B",
"8  c #3B231B",
"9  c #3A281B",
"0  c #2D2623",
"q  c #312421",
"w  c #3D2A24",
"e  c #3C2B28",
"r  c #3F322F",
"t  c #44251B",
"y  c #442A1D",
"u  c #4B2C1E",
"i  c #442721",
"p  c #442C21",
"a  c #4C2C22",
"s  c #462F2C",
"d  c #522E26",
"f  c #4D3323",
"g  c #483329",
"h  c #533323",
"j  c #583523",
"k  c #5D3A27",
"l  c #553229",
"z  c #5A352A",
"x  c #5C3D2B",
"c  c #523827",
"v  c #453533",
"b  c #4B3532",
"n  c #4A3936",
"m  c #413E3B",
"M  c #5C3A34",
"N  c #5E3F3B",
"B  c #553A36",
"V  c #623D2C",
"C  c #613C27",
"Z  c #623932",
"A  c #5D402E",
"S  c #4C423E",
"D  c #45403B",
"F  c #55423D",
"G  c #5B423E",
"H  c #62422E",
"J  c #6A422D",
"K  c #72492F",
"L  c #654232",
"P  c #6B4333",
"I  c #6C4A32",
"U  c #62403B",
"Y  c #684739",
"T  c #694939",
"R  c #744D35",
"E  c #734B39",
"W  c #7A4E3B",
"Q  c #7A4E36",
"!  c #7B5135",
"~  c #75533A",
"^  c #7D543A",
"/  c #7F583D",
"(  c #474744",
")  c #574C47",
"_  c #574F48",
"`  c #564441",
"'  c #5B524C",
"]  c #6A4D46",
"[  c #6A4B46",
"{  c #714F47",
"}  c #6A504C",
"|  c #73534E",
" . c #645F59",
".. c #725551",
"X. c #7D5D55",
"o. c #785E58",
"O. c #725A53",
"+. c #79625C",
"@. c #746561",
"#. c #7D6763",
"$. c #727E7B",
"%. c #83553A",
"&. c #845A3C",
"*. c #8C5D3C",
"=. c #845D42",
"-. c #895D46",
";. c #805342",
":. c #825C58",
">. c #866040",
",. c #8D6344",
"<. c #86624D",
"1. c #8E634A",
"2. c #936543",
"3. c #946945",
"4. c #956B49",
"5. c #9A6E4A",
"6. c #966A49",
"7. c #9D734D",
"8. c #83655D",
"9. c #876458",
"0. c #996D51",
"q. c #957353",
"w. c #9C7352",
"e. c #947B5B",
"r. c #9C7B5A",
"t. c #9F7B55",
"y. c #A0724E",
"u. c #A57652",
"i. c #A47952",
"p. c #AA7C56",
"a. c #AB7E5A",
"s. c #B17E5A",
"d. c #876660",
"f. c #866B64",
"g. c #8A6964",
"h. c #856D69",
"j. c #8C6D69",
"k. c #906E68",
"l. c #88776F",
"z. c #8F7166",
"x. c #827B74",
"c. c #957670",
"v. c #9D7B75",
"b. c #987B76",
"n. c #AA7E66",
"m. c #A5825D",
"M. c #AB835D",
"N. c #B4835D",
"B. c #9E817B",
"V. c #AD8A65",
"C. c #B98662",
"Z. c #B58C64",
"A. c #BA8A63",
"S. c #BE8E68",
"D. c #BB8E68",
"F. c #B28965",
"G. c #B3936B",
"H. c #BE906A",
"J. c #BD936B",
"K. c #B9966B",
"L. c #A18078",
"P. c #C1966E",
"I. c #C39971",
"U. c #C39D74",
"Y. c #C4A176",
"T. c #C7A47A",
"R. c #C9AC7F",
"E. c #798482",
"W. c #8D8781",
"Q. c #9D9186",
"!. c #9D9189",
"~. c #AA8681",
"^. c #A68C84",
"/. c #B78E8A",
"(. c #A0968F",
"). c #B9928E",
"_. c #BD9591",
"`. c #B6A79F",
"'. c #BCA59F",
"]. c #B1AEA6",
"[. c #B9A8A0",
"{. c #A4B3AE",
"}. c #CAAF81",
"|. c #CBA09D",
" X c #C6ABA4",
".X c #C1B5AC",
"XX c #C5BBB2",
"oX c #CCC4BA",
"OX c #D7CEC5",
"+X c #D0E1DB",
/* pixels */
"                                                                                                                                ",
"                                                                                                                                ",
"                              2 3 X                                                                                             ",
"                            . < d & X                                                                                           ",
"                            & M d : = @                                                                                         ",
"                            * &.c $ = = $                                                                                       ",
"                            * R x # # = :                                                                                       ",
"                            & H p X X # 6 *                       6 6 6 6 t 1 t                                                 ",
"                            . 2 * X   . u z @ o           & + * t a j j %.J h k k                                               ",
"                              # * .   . h ! : o       . # < & < C Q 2.5.3.*.%.P 1.h 6                                           ",
"                              . * .     5 >.f o # = & & & & < C *.*.u.P.D.i.2.3.D.m.h                                           ",
"                              . # .     $ x y # $ 2 k y * : a Q 5.5.s.S.T.J.7.7.Z.U.H                                           ",
"                              . @ X     X - 8 3 3 l l y t d Q 5.y.p.p.i.Y.}.D.y.i.P.q.h 6                                       ",
"                              . & #     . # t 6 < < 1 1 t Z %.2.*.3.N.M.A.T.N.3.i.H.M.I 6                                       ",
"                        . X X . 8 - X     @ i : # $ - - d R %.*.^ / y.N.i.i.2.y.i.M.R.t.6         $ $ $ $                       ",
"                        . + * & < < +     X = @ $ $ = $ j &.&.*.I ^ 7.N.N.7.M.J.i.M.Y.N.6       $ $ $       $                   ",
"                          X 9 8 f y @     X o o = $ $ $ h %.*.*.2.6.i.N.i.F.T.H.i.i.s.C.a j u p               $                 ",
"                            . + f 9 X     + * # & $ $ $ y P &.*.i.p.i.a.M.S.I.S.7.2.3.u.-.3.K 8               $                 ",
"                                        . @ 6 * $ 8 x t t d Q *.N.A.C.s.A.P.I.0.I E 3.M.F.Y -                 $                 ",
"                                        X & : $ $ 8 ^ h < t %.M.s.5.-.^ p.H.U.F.{ W Z.a.T 8 $               ( 4                 ",
"                                      . o & * : u 2 f P 3 : r.Z.K 3 = 2 2 - k w.A.5.y.I t 1 * &           E.+XE.                ",
"                                    X . $ & & c W Z t a < 2 q.4.i = s [ | b < k D.y.! u j h h * $ $ $     $.{.$.                ",
"                                    X X & < $ , k P z t : a 7.>.1 e f.c._.v.w * 5.y.! ^ p.u.>.9 $                               ",
"                                  . + + + $ * i L P d 3 3 E i./ t G c.v.|./.} < K 2.3.p.A.C.2.H #                               ",
"                                . X # + + # $ p H V 8 2 >.i.K.q.t M d.v.v.v...2 j *.6.q.e.e.q.{ $                               ",
"                                . + + X X + # & * < a V *.! V.i.i a { d.k.g.b : J %.Z 3 2 2 1.1.:                               ",
"                                X # + X $ 3 a H R >.,.6.*.X.q.Z.Z d a M M s 7 k i.M 7 G d.] 8 Z I #                             ",
"                                X # + # < 3 - : 5 p %.7.7.4.4.F.r.L i t 7 8 / V.=.8 b 8.~./.[ 3 ~ $                             ",
"                                . X @ < 3 o X + S 9.z.N ^ A.M.7.a.M.7.5.y.0.I x < 8 G d.L.).:., o $                             ",
"                                X X # 3 8 . X % h.f.g # 4 q.Y.i.,./ &.&.E h $ < & 8 M | v.j.U ; + $ $                           ",
"                                . o @ a @ . . . . . . . f.| E ,.i.M.,.R L 8 & a - f 2 B | Z , +                                 ",
"                                . o * d b } X . . . $ $.`.9 $ u y.P.M.4.0.~ k -.7 P t t w 2 # +                                 ",
"                                . X - l o.% @ . . $ F e . . . 7 :.J I 4.K.i.X.Z.f z x & X : k 8                                 ",
"                                . X < l n ; , . . . . . . . 0 j.[ < 6 M V.m.7.V.I 6 6 # X 4 w.R X                               ",
"                              . o # 6 l ) Q.> . . . . . . m OXv.O X $ ..E j &.i.6.j * +   $ c ,.X                               ",
"                              . + & 6 l '.].. . . . . X ) .X$.0 . . = +.] t h R K.~ o       & R X                               ",
"                            . X * t t K j.q ' #.. . . . . . . . . X l.^.. . > = f 9         X A X                               ",
"                            . X t k t K X.@.XXm . . . % . . . . . ; XX@.. . b b . .         X f +                               ",
"                            . X k &.t u F.v.e O $ ; . W.. . . . X _ !.0 . . (.@..           = A X                               ",
"                            . X u *.V < A.9.O , } O v oXO . . . X F S . . . ]. .            y j X                               ",
"                              . * R %.9 L =.Y !.O % XXh.O . . . % % . X . > [.(         # 5 R y                                 ",
"                                & V &.9 * L n.] # B [.( O X % @ . . X . . v c.v .       - =.3.7                                 ",
"                                # a ^ 5 . # ~ n.` ~...% X = g.v . O . . % r n 0         5 H c &                                 ",
"                                o < J y   X < ^ <...Z : = O.@.; O . % n v % % .         $ f 5                                   ",
"                                  @ u t .   . 2 %.! M i  X^.- o , > ` e . .           O h 6.p                                   ",
"                                  @ 1 1 .   . $ h I P d :.a < # % . . X . O             9 M                                     ",
"                                  o : t .   . * X # * @ # : y a = .                       o                                     ",
"                                . o < : .   . * * + . . . + & 8 8 #                       o                                     ",
"                              . . o X .       . - * o .       . $ :                     o                                       ",
"                            . . X .             . o @ @ .       X #                                                             ",
"                            X . .                   X o .         #                                                             ",
"                          . X .                     . . X .                                                                     ",
"                        . . X                         . . .     . .                                                             ",
"                        . X .                           . X     X                                                               ",
"                        . X                             . X .                                                                   ",
"                        . .                             . X .                                                                   ",
"                        .                                 . .                                                                   ",
"                        .                                   .                                                                   ",
"                        . .                                 .                                                                   ",
"                        . .                               . .                                                                   ",
"                            .                           . .                                                                     ",
"                                                        .                                                                       ",
"                                                                                                                                ",
"                                                                                                                                "
};
