/* XPM */
static char *_82ff72fbbcb40a49bd59bf29b799b5agFA5gA198xPXMfxO[] = {
/* columns rows colors chars-per-pixel */
"64 64 146 2 ",
"   c #473D2F",
".  c #4A3D2B",
"X  c #463E34",
"o  c #493F32",
"O  c #453F3A",
"+  c #4F412E",
"@  c #50432F",
"#  c #4C4133",
"$  c #46403D",
"%  c #4A423B",
"&  c #514533",
"*  c #564836",
"=  c #594A36",
"-  c #51473B",
";  c #55493A",
":  c #5A4D3B",
">  c #5E513E",
",  c #62533E",
"<  c #454244",
"1  c #494543",
"2  c #4E4947",
"3  c #45454C",
"4  c #48464C",
"5  c #4C494C",
"6  c #534B43",
"7  c #594E41",
"8  c #564F4A",
"9  c #5D5245",
"0  c #57514F",
"q  c #5C5349",
"w  c #474750",
"e  c #474850",
"r  c #4B4B53",
"t  c #4F4F58",
"y  c #514F55",
"u  c #555255",
"i  c #5A5654",
"p  c #5F5853",
"a  c #53535C",
"s  c #59565B",
"d  c #5E595A",
"f  c #625544",
"g  c #665946",
"h  c #685A45",
"j  c #62574A",
"k  c #655A4B",
"l  c #6A5D4C",
"z  c #645B53",
"x  c #6A5E51",
"c  c #655F5D",
"v  c #6E614E",
"b  c #71634F",
"n  c #6D6153",
"m  c #6B625C",
"M  c #726552",
"N  c #766955",
"B  c #786A56",
"V  c #72665C",
"C  c #766A5C",
"Z  c #7A6D5C",
"A  c #565661",
"S  c #575862",
"D  c #5A5A64",
"F  c #5E5E6A",
"G  c #625E62",
"H  c #5F606C",
"J  c #666162",
"K  c #696363",
"L  c #6F6865",
"P  c #62626D",
"I  c #69656B",
"U  c #6D686C",
"Y  c #756B63",
"T  c #7A6F63",
"R  c #736C6B",
"E  c #786F69",
"W  c #7C7164",
"Q  c #7B716C",
"!  c #676774",
"~  c #686772",
"^  c #676875",
"/  c #696976",
"(  c #6C6C7C",
")  c #6D6D7D",
"_  c #6F6F7F",
"`  c #726D72",
"'  c #726E74",
"]  c #706E79",
"[  c #7C7473",
"{  c #7E7574",
"}  c #7D7679",
"|  c #7F787C",
" . c #80746A",
".. c #827872",
"X. c #827975",
"o. c #837B7B",
"O. c #80797D",
"+. c #6F6F80",
"@. c #6F7080",
"#. c #707081",
"$. c #707182",
"%. c #717183",
"&. c #717284",
"*. c #727385",
"=. c #737386",
"-. c #747487",
";. c #7D7983",
":. c #7F7B85",
">. c #757589",
",. c #76768A",
"<. c #77778B",
"1. c #77788B",
"2. c #79798D",
"3. c #7A7A8E",
"4. c #7C7C90",
"5. c #7D7D92",
"6. c #7F7F95",
"7. c #817A81",
"8. c #827C83",
"9. c #827C86",
"0. c #827D88",
"q. c #837E8A",
"w. c #817E8D",
"e. c #817F91",
"r. c #817F92",
"t. c #868087",
"y. c #8A8284",
"u. c #8A848C",
"i. c #808095",
"p. c #828194",
"a. c #858294",
"s. c #898594",
"d. c #8D8995",
"f. c #83839A",
"g. c #85849A",
"h. c #84849B",
"j. c #85859C",
"k. c #86869D",
"l. c #89879A",
"z. c #88879E",
"x. c #8C8A9D",
"c. c #908D9E",
"v. c #8C8BA2",
"b. c #8F8FAA",
"n. c #918EA3",
"m. c #908FAA",
/* pixels */
"! ! ! ^ ! ! ! ! ( ! ! ! ! ^ ! ! ! ! ! P F a r w 4 x j 3 3 w w 4 r r w r w r w r r r r r r r r t r t r r w w w w 3 6 g K ( / ! ! ",
"! ! ! ! ! ! ! ! / ! ^ ! ! ! ! ! ! ! D a r w 4 3 2 M k 1 3 3 3 3 3 3 3 r w w 3 3 4 4 3 r w r r 4 w w r 4 w w w 3 3 4 g G ( ~ ! ! ",
"! ! ! ! / ! ! ! ! / ! ! ! ! ! ! G D t w w w 3 < k N M l 7 % - % % % % 1 1 < < < 1 < < < < < < 3 < < < 3 < 3 3 3 < 2 k c ( / ! ! ",
"! ! ^ ! ! ! ! ^ ! ! ! ! ! ! ! D a r r 4 w < 6 g C  .X.X.X.{ E Y Y Y m x x k f , 7 : = ; : : 7 : ; - ; ; ; ; % ; ; f h z / ! ! ! ",
"! ^ ! ! ! ! ! ! ! ! ! ! G D A r w w w < X 9 n Y ;.g.4.3.4.r.4.4.3.r.r.r.r.w.w.q.q.9.9.7.7.7.7.7.{ [ E [ { E Y Y T n l k D F ! ! ",
"F P ! ! ! ! ! ^ ! ! P F S t r w 4 < O & f V R / $.] +.( ( +.+.+.$.] $.$.$.+.=.-.>.>.>.>.>.<.<.>.3.3.6.r.f.j.j.j.j.r.V l s A A D ",
"s A A S A D F D D D A t r w w 3 O - g n Y ] +.+.+.( ( / / / ^ / / / ( / ^ ( ( ~ / ( / ( / ( ( / ( / ( ( ( ^ +.+.$.=.G v s A A A ",
"A A a a a a a t t r r r w 3 O O > n Y ] $.+.+.( / ^ ! ! ( ( ^ ! ! ~ ! ! ! ! ! ! ! ! ! ! ! ! ! ^ ~ ! ! ! / ! ! ^ ( ] K g i A A A ",
"t t r r r r r r r w 4 4 < # = l L ` +.+.( ^ ^ ^ ! ! / / ] ! ! ! ! ! ! ! ! ! ! ! ! ! ! ! ^ ^ ! ! ! ! ^ ^ ( ^ ~ / ! / I k j t t t ",
"w w r r r r r 5 4 3 < X . h L ` ( +.( / ^ ! ^ ^ ! ! ! ! / ! ! ! ! / ! ! ! ! ! ! ! ! ! ! ^ ^ ! ! ! ! ! ! ! ^ G D D D D k j y r w ",
"3 3 1 1 < $ $ X o . . = k J P P ! ! / ! ! ^ ^ ^ ! ! ! ! ! ! ! ! ! ! ! ! ! ! ! ! ! ! ! ! / / ! ! P F F A a S A t r r w 9 l 5 4 3 ",
"# + + & : f f > : , l N J A A s A D F G G P P P ! P ! P P ! P ! ! P ! ! ! ! P ! P ! ! G G D D D a t r r r r w w w < < : b f * o ",
"n C Q 8.u.s.s.l.l.X.B z t t r t t t t t t t t a t a a A s A A A a A A A A A S S A A a a t t r r w w w w 4 < O o o o & h N N M l ",
"x.v.v.j.f.6.4.4.4.1.V z w 3 w w 4 r r r r r w w w w w w r r w w w w r r r r r w w w w 4 w 4 4 4 < < X o . . & = g x T  .X.7.s.l.",
">.>.@.( +.+.$.@.( / m k 8 < < < < < 4 < < < < < < < 3 < < 4 < 3 3 3 < < < 3 < < < < < < < O o o & : f z L [ | 9.w.r.3.3.3.<.<.<.",
"/ ( / / / ( ( ( +.( c b M g : & @ @ @ . & & & @ & & . & ; ; & o # & # & & * & & - 9 f f f x Y ;.q.d.v.j.j.6.>.=.$.] ( ( ( ( / / ",
"/ ^ ! ! ! ^ ^ / ( +.c M Z W Q Q W Q W Q E Q [ [ ;.[ [ ;.7.7.7.;.| } } } { { E E Z N B O.n.b.b.r.r.3.=.] ( ( ( / ( / / ^ ^ ! ! ! ",
"! ! ^ ! ! ! ^ ^ ( +.c M [ a.g.g.g.g.j.j.v.f.g.f.r.r.v.r.r.r.r.6.r.f.f.v.v.v.n.m.s.C V z.4.3.=.+.( ( ( / / / ! ! ! ! ! ! ^ ! ! ^ ",
"! ^ ! ! ! ! ! ! ( +.J M ` $.$.$.] +.@.$.@.@.( @.+.+.+.+.$.+.( +.+.+.+.( +.+.$.3.j.V z ] $.+.( ( / ! ^ ! ! ! ! ! ! ! ! ! ! ! ! ! ",
"! ! ! ! ! ^ ! ! / +.J M ~ ] +.( +.+.+.+.( ( ( ( +./ / +.( ( ( ( ( ( =.+.( +.$.( ! k j / +.+.( ! ! ! ! ! ! ! ! / ! ! ! ! ! / ! ! ",
"! ^ ! ! ! ! ! ! ( +.K n / ] ( +.$.] ( ( ^ ^ ^ ^ ! ! ! ! ! ! ! / ! ! ( ( +.+.+.+.~ j j ] +.( ! ! ! ! ! ! ! ! ! ! ! ! ! ! ! ^ ^ ( ",
"! ! ! ! ! ^ ^ ! / +.K n ' $.$.+.( / ! ! ^ ^ ! ! ! ! ^ ! ! ! ! ! ! / ! ! / +.( +./ f j ] +.( / ! / ! / ! ! ! ! ! ! ! ! ! P ^ ( / ",
"! / ! ^ ! ^ ! ! / +.K M ] ( ( ( / ! ! ! ! ! / ! / / ! ^ ! ! ! / ! / ! ! ! / +.] / j j ( ( ! / ! ! ! ! ! ! / ! ! ! ! ! / ) +.! ! ",
"! ! ! ! ! ! ! ! / +.K M ( $.( ! ! ! ! ! ! ! ! / P P ! ! ! ! ! ! ! ! ! ! ! ! ( +.] k j / / ! ! ! ! ! ! ! ! ! ! ! ^ / ( ( ^ ! ! ! ",
"! ! ! ! ^ ^ ^ ^ ^ +.G x ~ @.( ! ! ^ ! ! ! ! ! ^ ^ ^ ^ ! ! ! ! ! ! ! ! ^ ! ! / ( ( j j G ! ! ! ! / / ! ^ ^ ^ ^ ^ ! / / ! ! ! ! ! ",
"! ! ! ! ^ ^ ! P H F z l I +.( ~ ! ! ! ! ^ ^ ^ ! ^ ^ ! ! ^ / ^ ! ! ! ! / ! ! P D G f 9 A S D F F P P P / ! ^ ^ ! ! ! / / ! ^ ! ! ",
"! ! ! ~ ! P G D S r y x K ( / ! ! ! ! ! ! ^ ! ! ! ! ! ^ / / / / ! ! ! ^ ! D S A A g 9 t t A A A D D D F F F F G F F ! F ! P P ! ",
"S D S D S S S s t 4 y x G P G P ! ! ! / ! ! ! ! ^ ! ! ! P / P P ! P F D S A A A t 9 9 r w t t t a a t a a A A A S S A A A A D D ",
"r r r r r r r r w w 5 l d A A S D D G ! H ! G ! H H G H H F S D D D A A A a t r r 9 f 1 3 w w w w w r r r r r r r r r r t r t r ",
"w 3 3 4 3 4 4 4 3 3 2 l d A A A A A A D S S D S S S S S S A A A a a t t w w w 3 4 l n 7 < < 3 3 3 3 3 w 3 3 4 3 w 4 w w w w w w ",
"O O O O O O O O O O : M d A A A A A A A S A A A A A A a t r r w w w 3 3 3 < < < 7 M B v * o o   o X O O O O O O < O O O O O O O ",
"f : > : : : : : , h M N p a a a a A a A A a t t r r w w w w w w 3 3 < < % & : g M T  .T C n x g f 9 7 : : = ; > , 9 f g k f f 9 ",
"c.d.s.a.u.t.t.q.8.o.E N z y r y r t r y t r r 3 w w 3 < < O O X % : j x L [ 7.u.r.v.v.r.v.v.j.l.l.r.d.s.s.q.9.Z T q.n.n.n.n.x.n.",
"r.3.4.4.4.4.4.4.3.3.[ Z k 4 w 4 w w w w w < < O O X * = : f V Y } u.x.v.v.j.r.4.<.=.$.$.$.$.+.=.-.=.<.3.r.r.v.T T r.4.4.4.4.r.4.",
"( ( +.( $.( ( ( ( $.+.Y b 6 < < < < O % O - : : f h M E u.l.v.z.j.r.4.=.=.$.$.+.+.+./ +.( ( ( ( ( +.+.] $.$.+.V n / ] +.+.] ( +.",
"/ ^ / / / ! ! ! ! ! / R C l : = = > g z V T [ 9.q.Y M ` r.>.=.$.$.( +.+.( ( ( / / / ! ! ! ! ~ ! / / / ( ] $./ v n / +.] ( ! ( ! ",
"^ ^ ! ! ! ! ! ! ! ! ! ( C N M E 7.q.a.r.r.3.<.>.] x M G +.$.+.] ( / / / ! / ! ! ! ! / ! ! ! ! ! ! P P / +.$./ x z / +.^ ! ! ! ! ",
"! ! ! ! ! ! ! ! ! ! ! ( Y N ..m.b.f.>.$.+.+.( +.] z b U +.+.( ( ! ^ / ! ! ! ! ! ! ! ! ! ! ! ! ! / / / ! / +./ k k / ( ! ! ! ! ! ",
"! ! ! ^ ! ! ! ! ! ! ~ ! G M ;.r.$.( ( ( ( / ( $.( x v I +.+./ ! ! ^ ! ^ ^ / ! ! ! ! ! ! ! ^ ! / / / ! ! ! ( ! g z ] ( ! ! ! ! P ",
"! ! ! ! ! ! ! ! ! ! ! ! k n U ] ( ~ ! ~ ! ! / ] / l l I +.( ! ! ! ! ! ! ^ / / ! ! ! / ! ! ! ! ! ! ! ! ! ! +./ j k / / ! ! / ( P ",
"! F ! ! ^ ! ^ ! ! ! ! G u M ` ( ~ ! ^ ^ ! ! ^ ( / x v U ( / / ! ! ^ ! ! ! / ( ! ! ! ! ! ! ! ! ! ! ! ! ! ~ ( ! k k ( ! ! ! ! ( ( ",
"( ! G ! ^ ! ! ! ! ! ! D 9 n / ' ! ! ^ ^ ! ! ! ^ / x v G / / ! ! ! ! ! ! ^ ! / ! ! ! ^ ! ! ^ ! ^ ! ! ! ! ~ ( ` k k / ( ! ! ! ! ~ ",
"! ! ! ! ^ ! ! ! ! / ~ s f n / / ! ! ! / ! ! ! ^ / l l G ! ! ! ! ! ! ! / ! ! ! ! ! ^ ! ! ! ! ^ ! ! ! ! ! ! ! ~ l k / ~ ! ! ! ! ! ",
"! ! ~ ! ! ! ! ^ ! ! F y f m / / ! ! ~ G ! ^ ^ / / l l G ! ! ! ! ! ! ! ! ! ! ^ ! ! ! ! ! ! ! ! ! ! ! ! ! ! / ) l k ( ! ! ! ! ! ! ",
"! ! / ! ! ! ! ! ^ ! F u g L / ! ! ^ / P ! ! ! ^ / l g s P P / / ! ! ! ! ! ! ! ! ! ! ! ! ! ! ^ ! / ! ! ! ! / ! l k / / ! ! ! ! ! ",
"! ! ! ! ^ ! / ! ^ ^ D 8 v ~ / ^ ! ! ^ ^ ! ! ! ^ / l g i D D F G F ! ! ! ! ! ! ! ^ ! ^ ! ! ! ^ ^ ! ! ! ! ! ! G z k / ! ! ! ! ! ! ",
"! ! ! ! ! ! ! ! / H A 9 l G / / ! ! / +./ ! ! ^ ~ k z y a A A A S D D D D D F F G H H ^ P P P P H H G H D D s k z ~ ! ! ! ! ! ! ",
"! ! ! ! ! ! ! ! G S s k x G P ! ^ ! ^ ^ / / ! ^ I l k w w r r t t t t t a t a a a a A A A a A a A A A A s a s j k ~ ! ! ! ! ! ! ",
"^ / ! ! ! G P D A t u h z A D ! ! ! ! ! ! ! ! ! P k x 1 < < 3 4 w w w w w 3 w w r w r w r w r u r r t t r r 4 9 j G ! ! ! ! ! ! ",
"F F D D A A a t r w y h q r a s D P ! ! ! ! ! ! ~ k M g ; o O X O o O o O < O O < < < < 3 < 3 3 w 3 3 3 3 3 < j z D D F P ! P F ",
"a t t t r r r w w 3 6 h 8 3 w r t a S D G P P ! G l  . .Z M n l h h h , > = = = & & & & % - o o X O O O X 1 6 M j a a A A a a a ",
"w w w w 3 < 1 O O # f M h 6 3 3 w r r y t t a A z ,  .9.d.c.c.z.d.u.u.u.y.y.7.7.o... . . .W Z C B M b n l v b N z 3 w r w r w w ",
"< < 1 6 6 ; : > g x Z T E b : - O 1 w w w w r w y 9 Y v.z.r.3.3.r.r.r.6.6.4.r.v.l.v.z.z.v.v.z.x.c.c.l.u.u.u.o.Z n 2 < 3 3 < < < ",
"j z V { O.O.9.w.i.q.r.p.q.a.9.Y g : * O O < 3 3 4 f n ] +.( ( ( $.( +.+.+.+.=.+.] $.] ] +.$.=.>.>.3.3.6.r.r.g.O.N l 7 ; * = : f ",
"w.r.r.4.3.3.>.=.@.$.( $.@.>.6.g.r.7.R n k ; 6 6 7 M x / +.=.+.+.+.( / ( / ( ^ +.( ( ( +.+.( +.+.] ( ( ( ( ( =.r.Z N M V E } 9.w.",
"$.+.( ( ( ( ( ( ( ( ( ( / / / ( ( =.r.r.q...V x b B n / +.+.] ( / ^ ! ! ! ! ! ! ! / ! / ^ / ^ / ( ( ( ( ( +.+.;.W B q.v.6.3.=.=.",
"( ) ) / / / / ! ~ ! ! ! ! ! ! ! / / / +.-.4.6.9. .N n / =.+.^ ! ! ! ! ! ! / ! ! ! ! ! ! ! ! ^ ! ! ! ! ! ! ( ( ( Z N 1.=.( _ $.] ",
"^ ^ / ! ! ! ! ! ! ! ! ! ! ! ! ^ ! ! ^ ^ ! ! +.>.E  .n / ( / ^ ! ^ ! ! ! ! ! ! ! ! ! ! ^ ! ! ! ! ! ! ! ! ! ! ( ( Y M I $.$.] ( / ",
"! ! ! ! / ! ! ! ! ! ! ! ! ! ! ! ^ ! / ! ! ! / ! c M n / ( ^ ! ^ ! ! ! ! ! ! ! ! ! ! ! ! / ^ ! ^ / ! ! ! ! ! ! ( Y N K $.+./ ^ ! ",
"! ! ! ! ! ! ! / ! ~ ! ! ! ^ ! ! / / P ! ! ! ! F z N c / ^ ! ! ! ! ! / ! ! / ! ! ! ! / ^ / / / / ! ! ! ! ! ! ! ! K B m ( ( ^ ! ! ",
"! ! ! ! ! ! ! ) ! / ! ! ! ! ! ! ! ! ^ ! / / ! F a n x G ^ ^ ^ ! ! / ! ! ! ! ! ! ! ! ! ! / ! ! ! ! ! ! ! ! ! ! D c M z ( ( ! ^ ! ",
"! ! ! ! ! ! ! @.! ! ! ! ! ^ ^ ! ! ! ! ! P / P S a k z G H ! ! ! ! ^ ^ ! ! ! ! ^ ! ! ! ! ! ! ! ! ! ! ^ ! ! P D a u x k ( / / ! ! ",
"! ! ! / ! ! ! ) ) ! ! ^ ! ^ ! ! ^ ! ! ^ / / G a y l z A S F F H G P F ! P ! ! ! ! ! ! ! ! ! ! ! ! ! ! G D D a r y k k ! ) ! ! ! ",
"! ! ! ! ! ! ! ~ ) ~ ! ! ! ! ! ! ! ! ! / / P A r r x z r t t t a a a a a A A A A A D S D D S D D A A A S S a r r r q g ~ ) ! ! ^ "
};
